<svg width="838" height="144" viewBox="0 0 838 144" fill="none" xmlns="http://www.w3.org/2000/svg">
<rect width="838" height="144" fill="url(#paint0_linear)"/>
<g filter="url(#filter0_d)">
<path d="M232.719 55.6875C231.453 57.2031 229.664 58.3828 227.352 59.2266C225.039 60.0547 222.477 60.4688 219.664 60.4688C216.711 60.4688 214.117 59.8281 211.883 58.5469C209.664 57.25 207.945 55.375 206.727 52.9219C205.523 50.4688 204.906 47.5859 204.875 44.2734V41.9531C204.875 38.5469 205.445 35.6016 206.586 33.1172C207.742 30.6172 209.398 28.7109 211.555 27.3984C213.727 26.0703 216.266 25.4062 219.172 25.4062C223.219 25.4062 226.383 26.375 228.664 28.3125C230.945 30.2344 232.297 33.0391 232.719 36.7266H225.875C225.562 34.7734 224.867 33.3438 223.789 32.4375C222.727 31.5312 221.258 31.0781 219.383 31.0781C216.992 31.0781 215.172 31.9766 213.922 33.7734C212.672 35.5703 212.039 38.2422 212.023 41.7891V43.9688C212.023 47.5469 212.703 50.25 214.062 52.0781C215.422 53.9062 217.414 54.8203 220.039 54.8203C222.68 54.8203 224.562 54.2578 225.688 53.1328V47.25H219.289V42.0703H232.719V55.6875Z" fill="#FE5621"/>
<path d="M257.703 52.9688H245.375L243.031 60H235.555L248.258 25.875H254.773L267.547 60H260.07L257.703 52.9688ZM247.273 47.2734H255.805L251.516 34.5L247.273 47.2734Z" fill="#346DF2"/>
<path d="M270.734 60V25.875H281.234C284.234 25.875 286.914 26.5547 289.273 27.9141C291.648 29.2578 293.5 31.1797 294.828 33.6797C296.156 36.1641 296.82 38.9922 296.82 42.1641V43.7344C296.82 46.9062 296.164 49.7266 294.852 52.1953C293.555 54.6641 291.719 56.5781 289.344 57.9375C286.969 59.2969 284.289 59.9844 281.305 60H270.734ZM277.766 31.5703V54.3516H281.164C283.914 54.3516 286.016 53.4531 287.469 51.6562C288.922 49.8594 289.664 47.2891 289.695 43.9453V42.1406C289.695 38.6719 288.977 36.0469 287.539 34.2656C286.102 32.4688 284 31.5703 281.234 31.5703H277.766Z" fill="#178F46"/>
<path d="M319.648 51.0469C319.648 49.7188 319.18 48.7031 318.242 48C317.305 47.2812 315.617 46.5312 313.18 45.75C310.742 44.9531 308.812 44.1719 307.391 43.4062C303.516 41.3125 301.578 38.4922 301.578 34.9453C301.578 33.1016 302.094 31.4609 303.125 30.0234C304.172 28.5703 305.664 27.4375 307.602 26.625C309.555 25.8125 311.742 25.4062 314.164 25.4062C316.602 25.4062 318.773 25.8516 320.68 26.7422C322.586 27.6172 324.062 28.8594 325.109 30.4688C326.172 32.0781 326.703 33.9062 326.703 35.9531H319.672C319.672 34.3906 319.18 33.1797 318.195 32.3203C317.211 31.4453 315.828 31.0078 314.047 31.0078C312.328 31.0078 310.992 31.375 310.039 32.1094C309.086 32.8281 308.609 33.7812 308.609 34.9688C308.609 36.0781 309.164 37.0078 310.273 37.7578C311.398 38.5078 313.047 39.2109 315.219 39.8672C319.219 41.0703 322.133 42.5625 323.961 44.3438C325.789 46.125 326.703 48.3438 326.703 51C326.703 53.9531 325.586 56.2734 323.352 57.9609C321.117 59.6328 318.109 60.4688 314.328 60.4688C311.703 60.4688 309.312 59.9922 307.156 59.0391C305 58.0703 303.352 56.75 302.211 55.0781C301.086 53.4062 300.523 51.4688 300.523 49.2656H307.578C307.578 53.0312 309.828 54.9141 314.328 54.9141C316 54.9141 317.305 54.5781 318.242 53.9062C319.18 53.2188 319.648 52.2656 319.648 51.0469Z" fill="#F8B10B"/>
<path d="M364.391 47.5781C364.391 51.5312 363.516 54.6719 361.766 57C360.016 59.3125 357.672 60.4688 354.734 60.4688C351.266 60.4688 348.609 59.25 346.766 56.8125V69.75H343.977V34.6406H346.578L346.719 38.2266C348.547 35.5234 351.195 34.1719 354.664 34.1719C357.695 34.1719 360.07 35.3203 361.789 37.6172C363.523 39.9141 364.391 43.1016 364.391 47.1797V47.5781ZM361.578 47.0859C361.578 43.8516 360.914 41.2969 359.586 39.4219C358.258 37.5469 356.406 36.6094 354.031 36.6094C352.312 36.6094 350.836 37.0234 349.602 37.8516C348.367 38.6797 347.422 39.8828 346.766 41.4609V53.625C347.438 55.0781 348.398 56.1875 349.648 56.9531C350.898 57.7188 352.375 58.1016 354.078 58.1016C356.438 58.1016 358.273 57.1641 359.586 55.2891C360.914 53.3984 361.578 50.6641 361.578 47.0859ZM382.344 37.0312C381.75 36.9219 381.117 36.8672 380.445 36.8672C378.695 36.8672 377.211 37.3594 375.992 38.3438C374.789 39.3125 373.93 40.7266 373.414 42.5859V60H370.625V34.6406H373.367L373.414 38.6719C374.898 35.6719 377.281 34.1719 380.562 34.1719C381.344 34.1719 381.961 34.2734 382.414 34.4766L382.344 37.0312ZM384.781 46.9453C384.781 44.5078 385.25 42.3125 386.188 40.3594C387.141 38.4062 388.477 36.8906 390.195 35.8125C391.93 34.7188 393.891 34.1719 396.078 34.1719C399.453 34.1719 402.188 35.3594 404.281 37.7344C406.375 40.0938 407.422 43.2266 407.422 47.1328V47.7188C407.422 50.1719 406.945 52.3828 405.992 54.3516C405.055 56.3047 403.727 57.8125 402.008 58.875C400.289 59.9375 398.328 60.4688 396.125 60.4688C392.766 60.4688 390.031 59.2891 387.922 56.9297C385.828 54.5547 384.781 51.4141 384.781 47.5078V46.9453ZM387.594 47.7188C387.594 50.75 388.375 53.2422 389.938 55.1953C391.516 57.1328 393.578 58.1016 396.125 58.1016C398.656 58.1016 400.703 57.1328 402.266 55.1953C403.844 53.2422 404.633 50.6719 404.633 47.4844V46.9453C404.633 45.0078 404.273 43.2344 403.555 41.625C402.836 40.0156 401.828 38.7734 400.531 37.8984C399.234 37.0078 397.75 36.5625 396.078 36.5625C393.578 36.5625 391.539 37.5469 389.961 39.5156C388.383 41.4688 387.594 44.0312 387.594 47.2031V47.7188ZM416.258 34.6406V63.0234C416.258 65.3672 415.695 67.1562 414.57 68.3906C413.445 69.625 411.789 70.2422 409.602 70.2422C408.758 70.2422 407.938 70.0938 407.141 69.7969L407.188 67.4766C407.875 67.6797 408.578 67.7812 409.297 67.7812C412.078 67.7812 413.469 66.1797 413.469 62.9766V34.6406H416.258ZM414.875 25.4062C415.484 25.4062 415.961 25.5938 416.305 25.9688C416.648 26.3281 416.82 26.7734 416.82 27.3047C416.82 27.8359 416.648 28.2812 416.305 28.6406C415.961 29 415.484 29.1797 414.875 29.1797C414.281 29.1797 413.812 29 413.469 28.6406C413.141 28.2812 412.977 27.8359 412.977 27.3047C412.977 26.7734 413.141 26.3281 413.469 25.9688C413.812 25.5938 414.281 25.4062 414.875 25.4062ZM434.023 60.4688C431.867 60.4688 429.914 59.9375 428.164 58.875C426.43 57.8125 425.078 56.3359 424.109 54.4453C423.141 52.5391 422.656 50.4062 422.656 48.0469V47.0391C422.656 44.6016 423.125 42.4062 424.062 40.4531C425.016 38.5 426.336 36.9688 428.023 35.8594C429.711 34.7344 431.539 34.1719 433.508 34.1719C436.586 34.1719 439.023 35.2266 440.82 37.3359C442.633 39.4297 443.539 42.2969 443.539 45.9375V47.5078H425.445V48.0469C425.445 50.9219 426.266 53.3203 427.906 55.2422C429.562 57.1484 431.641 58.1016 434.141 58.1016C435.641 58.1016 436.961 57.8281 438.102 57.2812C439.258 56.7344 440.305 55.8594 441.242 54.6562L443 55.9922C440.938 58.9766 437.945 60.4688 434.023 60.4688ZM433.508 36.5625C431.398 36.5625 429.617 37.3359 428.164 38.8828C426.727 40.4297 425.852 42.5078 425.539 45.1172H440.75V44.8125C440.672 42.375 439.977 40.3906 438.664 38.8594C437.352 37.3281 435.633 36.5625 433.508 36.5625ZM458.375 58.1016C460.328 58.1016 461.961 57.5547 463.273 56.4609C464.602 55.3516 465.32 53.9219 465.43 52.1719H468.125C468.047 53.7188 467.562 55.1328 466.672 56.4141C465.781 57.6797 464.594 58.6719 463.109 59.3906C461.641 60.1094 460.062 60.4688 458.375 60.4688C455.047 60.4688 452.406 59.3125 450.453 57C448.516 54.6875 447.547 51.5781 447.547 47.6719V46.8281C447.547 44.3281 447.984 42.1172 448.859 40.1953C449.734 38.2734 450.984 36.7891 452.609 35.7422C454.25 34.6953 456.164 34.1719 458.352 34.1719C461.133 34.1719 463.422 35 465.219 36.6562C467.031 38.3125 468 40.4922 468.125 43.1953H465.43C465.305 41.2109 464.586 39.6094 463.273 38.3906C461.977 37.1719 460.336 36.5625 458.352 36.5625C455.82 36.5625 453.852 37.4766 452.445 39.3047C451.055 41.1328 450.359 43.6953 450.359 46.9922V47.8125C450.359 51.0469 451.055 53.5703 452.445 55.3828C453.852 57.1953 455.828 58.1016 458.375 58.1016ZM478.109 28.1484V34.6406H483.359V36.9375H478.109V53.8359C478.109 55.2422 478.359 56.2891 478.859 56.9766C479.375 57.6641 480.227 58.0078 481.414 58.0078C481.883 58.0078 482.641 57.9297 483.688 57.7734L483.805 60.0703C483.07 60.3359 482.07 60.4688 480.805 60.4688C478.883 60.4688 477.484 59.9141 476.609 58.8047C475.734 57.6797 475.297 56.0312 475.297 53.8594V36.9375H470.633V34.6406H475.297V28.1484H478.109ZM499.719 47.0859C499.719 43.1172 500.594 39.9766 502.344 37.6641C504.109 35.3359 506.5 34.1719 509.516 34.1719C512.969 34.1719 515.594 35.5469 517.391 38.2969L517.531 34.6406H520.156V59.4844C520.156 62.75 519.242 65.3359 517.414 67.2422C515.586 69.1484 513.109 70.1016 509.984 70.1016C508.219 70.1016 506.531 69.7031 504.922 68.9062C503.328 68.125 502.07 67.0781 501.148 65.7656L502.719 64.0781C504.703 66.5156 507.062 67.7344 509.797 67.7344C512.141 67.7344 513.969 67.0391 515.281 65.6484C516.594 64.2734 517.273 62.3594 517.32 59.9062V56.7188C515.523 59.2188 512.906 60.4688 509.469 60.4688C506.531 60.4688 504.172 59.2969 502.391 56.9531C500.609 54.6094 499.719 51.4453 499.719 47.4609V47.0859ZM502.555 47.5781C502.555 50.8125 503.203 53.3672 504.5 55.2422C505.797 57.1016 507.625 58.0312 509.984 58.0312C513.438 58.0312 515.883 56.4844 517.32 53.3906V41.6016C516.664 39.9766 515.719 38.7422 514.484 37.8984C513.25 37.0391 511.766 36.6094 510.031 36.6094C507.672 36.6094 505.836 37.5391 504.523 39.3984C503.211 41.2422 502.555 43.9688 502.555 47.5781ZM543.477 60C543.195 59.2031 543.016 58.0234 542.938 56.4609C541.953 57.7422 540.695 58.7344 539.164 59.4375C537.648 60.125 536.039 60.4688 534.336 60.4688C531.898 60.4688 529.922 59.7891 528.406 58.4297C526.906 57.0703 526.156 55.3516 526.156 53.2734C526.156 50.8047 527.18 48.8516 529.227 47.4141C531.289 45.9766 534.156 45.2578 537.828 45.2578H542.914V42.375C542.914 40.5625 542.352 39.1406 541.227 38.1094C540.117 37.0625 538.492 36.5391 536.352 36.5391C534.398 36.5391 532.781 37.0391 531.5 38.0391C530.219 39.0391 529.578 40.2422 529.578 41.6484L526.766 41.625C526.766 39.6094 527.703 37.8672 529.578 36.3984C531.453 34.9141 533.758 34.1719 536.492 34.1719C539.32 34.1719 541.547 34.8828 543.172 36.3047C544.812 37.7109 545.656 39.6797 545.703 42.2109V54.2109C545.703 56.6641 545.961 58.5 546.477 59.7188V60H543.477ZM534.664 57.9844C536.539 57.9844 538.211 57.5312 539.68 56.625C541.164 55.7188 542.242 54.5078 542.914 52.9922V47.4141H537.898C535.102 47.4453 532.914 47.9609 531.336 48.9609C529.758 49.9453 528.969 51.3047 528.969 53.0391C528.969 54.4609 529.492 55.6406 530.539 56.5781C531.602 57.5156 532.977 57.9844 534.664 57.9844ZM556.344 60H553.531V24H556.344V60ZM567.125 60H564.312V24H567.125V60ZM584.586 60.4688C582.43 60.4688 580.477 59.9375 578.727 58.875C576.992 57.8125 575.641 56.3359 574.672 54.4453C573.703 52.5391 573.219 50.4062 573.219 48.0469V47.0391C573.219 44.6016 573.688 42.4062 574.625 40.4531C575.578 38.5 576.898 36.9688 578.586 35.8594C580.273 34.7344 582.102 34.1719 584.07 34.1719C587.148 34.1719 589.586 35.2266 591.383 37.3359C593.195 39.4297 594.102 42.2969 594.102 45.9375V47.5078H576.008V48.0469C576.008 50.9219 576.828 53.3203 578.469 55.2422C580.125 57.1484 582.203 58.1016 584.703 58.1016C586.203 58.1016 587.523 57.8281 588.664 57.2812C589.82 56.7344 590.867 55.8594 591.805 54.6562L593.562 55.9922C591.5 58.9766 588.508 60.4688 584.586 60.4688ZM584.07 36.5625C581.961 36.5625 580.18 37.3359 578.727 38.8828C577.289 40.4297 576.414 42.5078 576.102 45.1172H591.312V44.8125C591.234 42.375 590.539 40.3906 589.227 38.8594C587.914 37.3281 586.195 36.5625 584.07 36.5625ZM611.281 37.0312C610.688 36.9219 610.055 36.8672 609.383 36.8672C607.633 36.8672 606.148 37.3594 604.93 38.3438C603.727 39.3125 602.867 40.7266 602.352 42.5859V60H599.562V34.6406H602.305L602.352 38.6719C603.836 35.6719 606.219 34.1719 609.5 34.1719C610.281 34.1719 610.898 34.2734 611.352 34.4766L611.281 37.0312ZM624.195 55.9688L631.602 34.6406H634.625L623.797 64.3125L623.234 65.625C621.844 68.7031 619.695 70.2422 616.789 70.2422C616.117 70.2422 615.398 70.1328 614.633 69.9141L614.609 67.5938L616.062 67.7344C617.438 67.7344 618.547 67.3906 619.391 66.7031C620.25 66.0312 620.977 64.8672 621.57 63.2109L622.812 59.7891L613.25 34.6406H616.32L624.195 55.9688ZM261.969 103.086C261.969 99.1484 262.844 96.0156 264.594 93.6875C266.359 91.3438 268.75 90.1719 271.766 90.1719C275.188 90.1719 277.797 91.5234 279.594 94.2266V80H282.383V116H279.758L279.641 112.625C277.844 115.188 275.203 116.469 271.719 116.469C268.797 116.469 266.438 115.297 264.641 112.953C262.859 110.594 261.969 107.414 261.969 103.414V103.086ZM264.805 103.578C264.805 106.812 265.453 109.367 266.75 111.242C268.047 113.102 269.875 114.031 272.234 114.031C275.688 114.031 278.141 112.508 279.594 109.461V97.5547C278.141 94.2578 275.703 92.6094 272.281 92.6094C269.922 92.6094 268.086 93.5391 266.773 95.3984C265.461 97.2422 264.805 99.9688 264.805 103.578ZM288.219 102.945C288.219 100.508 288.688 98.3125 289.625 96.3594C290.578 94.4062 291.914 92.8906 293.633 91.8125C295.367 90.7188 297.328 90.1719 299.516 90.1719C302.891 90.1719 305.625 91.3594 307.719 93.7344C309.812 96.0938 310.859 99.2266 310.859 103.133V103.719C310.859 106.172 310.383 108.383 309.43 110.352C308.492 112.305 307.164 113.812 305.445 114.875C303.727 115.938 301.766 116.469 299.562 116.469C296.203 116.469 293.469 115.289 291.359 112.93C289.266 110.555 288.219 107.414 288.219 103.508V102.945ZM291.031 103.719C291.031 106.75 291.812 109.242 293.375 111.195C294.953 113.133 297.016 114.102 299.562 114.102C302.094 114.102 304.141 113.133 305.703 111.195C307.281 109.242 308.07 106.672 308.07 103.484V102.945C308.07 101.008 307.711 99.2344 306.992 97.625C306.273 96.0156 305.266 94.7734 303.969 93.8984C302.672 93.0078 301.188 92.5625 299.516 92.5625C297.016 92.5625 294.977 93.5469 293.398 95.5156C291.82 97.4688 291.031 100.031 291.031 103.203V103.719ZM326.047 114.102C328 114.102 329.633 113.555 330.945 112.461C332.273 111.352 332.992 109.922 333.102 108.172H335.797C335.719 109.719 335.234 111.133 334.344 112.414C333.453 113.68 332.266 114.672 330.781 115.391C329.312 116.109 327.734 116.469 326.047 116.469C322.719 116.469 320.078 115.312 318.125 113C316.188 110.688 315.219 107.578 315.219 103.672V102.828C315.219 100.328 315.656 98.1172 316.531 96.1953C317.406 94.2734 318.656 92.7891 320.281 91.7422C321.922 90.6953 323.836 90.1719 326.023 90.1719C328.805 90.1719 331.094 91 332.891 92.6562C334.703 94.3125 335.672 96.4922 335.797 99.1953H333.102C332.977 97.2109 332.258 95.6094 330.945 94.3906C329.648 93.1719 328.008 92.5625 326.023 92.5625C323.492 92.5625 321.523 93.4766 320.117 95.3047C318.727 97.1328 318.031 99.6953 318.031 102.992V103.812C318.031 107.047 318.727 109.57 320.117 111.383C321.523 113.195 323.5 114.102 326.047 114.102ZM357.734 112.789C356.047 115.242 353.352 116.469 349.648 116.469C346.945 116.469 344.891 115.688 343.484 114.125C342.078 112.547 341.359 110.219 341.328 107.141V90.6406H344.117V106.789C344.117 111.617 346.07 114.031 349.977 114.031C354.039 114.031 356.609 112.352 357.688 108.992V90.6406H360.5V116H357.781L357.734 112.789ZM370.367 90.6406L370.461 94.7656C371.398 93.2344 372.57 92.0859 373.977 91.3203C375.383 90.5547 376.945 90.1719 378.664 90.1719C382.664 90.1719 385.203 91.8125 386.281 95.0938C387.188 93.5156 388.398 92.3047 389.914 91.4609C391.43 90.6016 393.102 90.1719 394.93 90.1719C400.367 90.1719 403.141 93.1406 403.25 99.0781V116H400.438V99.2891C400.422 97.0234 399.93 95.3438 398.961 94.25C398.008 93.1562 396.445 92.6094 394.273 92.6094C392.258 92.6406 390.555 93.2969 389.164 94.5781C387.773 95.8438 387 97.3906 386.844 99.2188V116H384.031V99.0781C384.016 96.9062 383.5 95.2891 382.484 94.2266C381.484 93.1484 379.938 92.6094 377.844 92.6094C376.078 92.6094 374.562 93.1172 373.297 94.1328C372.031 95.1328 371.094 96.625 370.484 98.6094V116H367.672V90.6406H370.367ZM420.195 116.469C418.039 116.469 416.086 115.938 414.336 114.875C412.602 113.812 411.25 112.336 410.281 110.445C409.312 108.539 408.828 106.406 408.828 104.047V103.039C408.828 100.602 409.297 98.4062 410.234 96.4531C411.188 94.5 412.508 92.9688 414.195 91.8594C415.883 90.7344 417.711 90.1719 419.68 90.1719C422.758 90.1719 425.195 91.2266 426.992 93.3359C428.805 95.4297 429.711 98.2969 429.711 101.938V103.508H411.617V104.047C411.617 106.922 412.438 109.32 414.078 111.242C415.734 113.148 417.812 114.102 420.312 114.102C421.812 114.102 423.133 113.828 424.273 113.281C425.43 112.734 426.477 111.859 427.414 110.656L429.172 111.992C427.109 114.977 424.117 116.469 420.195 116.469ZM419.68 92.5625C417.57 92.5625 415.789 93.3359 414.336 94.8828C412.898 96.4297 412.023 98.5078 411.711 101.117H426.922V100.812C426.844 98.375 426.148 96.3906 424.836 94.8594C423.523 93.3281 421.805 92.5625 419.68 92.5625ZM437.844 90.6406L437.938 94.9766C438.891 93.4141 440.078 92.2266 441.5 91.4141C442.922 90.5859 444.492 90.1719 446.211 90.1719C448.93 90.1719 450.953 90.9375 452.281 92.4688C453.609 94 454.281 96.2969 454.297 99.3594V116H451.508V99.3359C451.492 97.0703 451.008 95.3828 450.055 94.2734C449.117 93.1641 447.609 92.6094 445.531 92.6094C443.797 92.6094 442.258 93.1562 440.914 94.25C439.586 95.3281 438.602 96.7891 437.961 98.6328V116H435.172V90.6406H437.844ZM465.922 84.1484V90.6406H471.172V92.9375H465.922V109.836C465.922 111.242 466.172 112.289 466.672 112.977C467.188 113.664 468.039 114.008 469.227 114.008C469.695 114.008 470.453 113.93 471.5 113.773L471.617 116.07C470.883 116.336 469.883 116.469 468.617 116.469C466.695 116.469 465.297 115.914 464.422 114.805C463.547 113.68 463.109 112.031 463.109 109.859V92.9375H458.445V90.6406H463.109V84.1484H465.922ZM492.992 116C492.711 115.203 492.531 114.023 492.453 112.461C491.469 113.742 490.211 114.734 488.68 115.438C487.164 116.125 485.555 116.469 483.852 116.469C481.414 116.469 479.438 115.789 477.922 114.43C476.422 113.07 475.672 111.352 475.672 109.273C475.672 106.805 476.695 104.852 478.742 103.414C480.805 101.977 483.672 101.258 487.344 101.258H492.43V98.375C492.43 96.5625 491.867 95.1406 490.742 94.1094C489.633 93.0625 488.008 92.5391 485.867 92.5391C483.914 92.5391 482.297 93.0391 481.016 94.0391C479.734 95.0391 479.094 96.2422 479.094 97.6484L476.281 97.625C476.281 95.6094 477.219 93.8672 479.094 92.3984C480.969 90.9141 483.273 90.1719 486.008 90.1719C488.836 90.1719 491.062 90.8828 492.688 92.3047C494.328 93.7109 495.172 95.6797 495.219 98.2109V110.211C495.219 112.664 495.477 114.5 495.992 115.719V116H492.992ZM484.18 113.984C486.055 113.984 487.727 113.531 489.195 112.625C490.68 111.719 491.758 110.508 492.43 108.992V103.414H487.414C484.617 103.445 482.43 103.961 480.852 104.961C479.273 105.945 478.484 107.305 478.484 109.039C478.484 110.461 479.008 111.641 480.055 112.578C481.117 113.516 482.492 113.984 484.18 113.984ZM507.078 84.1484V90.6406H512.328V92.9375H507.078V109.836C507.078 111.242 507.328 112.289 507.828 112.977C508.344 113.664 509.195 114.008 510.383 114.008C510.852 114.008 511.609 113.93 512.656 113.773L512.773 116.07C512.039 116.336 511.039 116.469 509.773 116.469C507.852 116.469 506.453 115.914 505.578 114.805C504.703 113.68 504.266 112.031 504.266 109.859V92.9375H499.602V90.6406H504.266V84.1484H507.078ZM521.281 116H518.469V90.6406H521.281V116ZM517.977 83.3047C517.977 82.7734 518.148 82.3281 518.492 81.9688C518.836 81.5938 519.305 81.4062 519.898 81.4062C520.492 81.4062 520.961 81.5938 521.305 81.9688C521.664 82.3281 521.844 82.7734 521.844 83.3047C521.844 83.8359 521.664 84.2812 521.305 84.6406C520.961 85 520.492 85.1797 519.898 85.1797C519.305 85.1797 518.836 85 518.492 84.6406C518.148 84.2812 517.977 83.8359 517.977 83.3047ZM527.375 102.945C527.375 100.508 527.844 98.3125 528.781 96.3594C529.734 94.4062 531.07 92.8906 532.789 91.8125C534.523 90.7188 536.484 90.1719 538.672 90.1719C542.047 90.1719 544.781 91.3594 546.875 93.7344C548.969 96.0938 550.016 99.2266 550.016 103.133V103.719C550.016 106.172 549.539 108.383 548.586 110.352C547.648 112.305 546.32 113.812 544.602 114.875C542.883 115.938 540.922 116.469 538.719 116.469C535.359 116.469 532.625 115.289 530.516 112.93C528.422 110.555 527.375 107.414 527.375 103.508V102.945ZM530.188 103.719C530.188 106.75 530.969 109.242 532.531 111.195C534.109 113.133 536.172 114.102 538.719 114.102C541.25 114.102 543.297 113.133 544.859 111.195C546.438 109.242 547.227 106.672 547.227 103.484V102.945C547.227 101.008 546.867 99.2344 546.148 97.625C545.43 96.0156 544.422 94.7734 543.125 93.8984C541.828 93.0078 540.344 92.5625 538.672 92.5625C536.172 92.5625 534.133 93.5469 532.555 95.5156C530.977 97.4688 530.188 100.031 530.188 103.203V103.719ZM558.5 90.6406L558.594 94.9766C559.547 93.4141 560.734 92.2266 562.156 91.4141C563.578 90.5859 565.148 90.1719 566.867 90.1719C569.586 90.1719 571.609 90.9375 572.938 92.4688C574.266 94 574.938 96.2969 574.953 99.3594V116H572.164V99.3359C572.148 97.0703 571.664 95.3828 570.711 94.2734C569.773 93.1641 568.266 92.6094 566.188 92.6094C564.453 92.6094 562.914 93.1562 561.57 94.25C560.242 95.3281 559.258 96.7891 558.617 98.6328V116H555.828V90.6406H558.5Z" fill="white"/>
</g>
<g filter="url(#filter1_d)">
<rect width="107.003" height="35.3377" rx="17.6689" transform="matrix(0.844207 -0.536017 0.611181 0.791491 32.189 68.2542)" fill="#FE5621"/>
</g>
<g filter="url(#filter2_d)">
<rect width="107.003" height="35.6469" rx="17.8235" transform="matrix(0.844207 0.536017 -0.611181 0.791491 53.7867 48.4302)" fill="#3167E4"/>
<rect width="107.003" height="35.6469" rx="17.8235" transform="matrix(0.844207 0.536017 -0.611181 0.791491 53.7867 48.4302)" fill="black" fill-opacity="0.2"/>
</g>
<g filter="url(#filter3_d)">
<rect width="107.003" height="35.6469" rx="17.8235" transform="matrix(-0.844207 0.536017 0.611181 0.791491 783.67 47.5317)" fill="#DA9C0C"/>
</g>
<g filter="url(#filter4_d)">
<rect width="107.003" height="35.3377" rx="17.6689" transform="matrix(-0.844207 -0.536017 -0.611181 0.791491 805.268 67.3556)" fill="#14803E"/>
</g>
<defs>
<filter id="filter0_d" x="200.875" y="24" width="437.75" height="100.469" filterUnits="userSpaceOnUse" color-interpolation-filters="sRGB">
<feFlood flood-opacity="0" result="BackgroundImageFix"/>
<feColorMatrix in="SourceAlpha" type="matrix" values="0 0 0 0 0 0 0 0 0 0 0 0 0 0 0 0 0 0 127 0" result="hardAlpha"/>
<feOffset dy="4"/>
<feGaussianBlur stdDeviation="2"/>
<feComposite in2="hardAlpha" operator="out"/>
<feColorMatrix type="matrix" values="0 0 0 0 0 0 0 0 0 0 0 0 0 0 0 0 0 0 0.25 0"/>
<feBlend mode="normal" in2="BackgroundImageFix" result="effect1_dropShadow"/>
<feBlend mode="normal" in="SourceGraphic" in2="effect1_dropShadow" result="shape"/>
</filter>
<filter id="filter1_d" x="35.4878" y="17.4625" width="105.333" height="80.1972" filterUnits="userSpaceOnUse" color-interpolation-filters="sRGB">
<feFlood flood-opacity="0" result="BackgroundImageFix"/>
<feColorMatrix in="SourceAlpha" type="matrix" values="0 0 0 0 0 0 0 0 0 0 0 0 0 0 0 0 0 0 127 0" result="hardAlpha"/>
<feOffset dy="4"/>
<feGaussianBlur stdDeviation="2"/>
<feComposite in2="hardAlpha" operator="out"/>
<feColorMatrix type="matrix" values="0 0 0 0 0 0 0 0 0 0 0 0 0 0 0 0 0 0 0.25 0"/>
<feBlend mode="normal" in2="BackgroundImageFix" result="effect1_dropShadow"/>
<feBlend mode="normal" in="SourceGraphic" in2="effect1_dropShadow" result="shape"/>
</filter>
<filter id="filter2_d" x="35.3627" y="55.0515" width="105.394" height="80.327" filterUnits="userSpaceOnUse" color-interpolation-filters="sRGB">
<feFlood flood-opacity="0" result="BackgroundImageFix"/>
<feColorMatrix in="SourceAlpha" type="matrix" values="0 0 0 0 0 0 0 0 0 0 0 0 0 0 0 0 0 0 127 0" result="hardAlpha"/>
<feOffset dy="4"/>
<feGaussianBlur stdDeviation="2"/>
<feComposite in2="hardAlpha" operator="out"/>
<feColorMatrix type="matrix" values="0 0 0 0 0 0 0 0 0 0 0 0 0 0 0 0 0 0 0.25 0"/>
<feBlend mode="normal" in2="BackgroundImageFix" result="effect1_dropShadow"/>
<feBlend mode="normal" in="SourceGraphic" in2="effect1_dropShadow" result="shape"/>
</filter>
<filter id="filter3_d" x="696.7" y="54.1531" width="105.394" height="80.327" filterUnits="userSpaceOnUse" color-interpolation-filters="sRGB">
<feFlood flood-opacity="0" result="BackgroundImageFix"/>
<feColorMatrix in="SourceAlpha" type="matrix" values="0 0 0 0 0 0 0 0 0 0 0 0 0 0 0 0 0 0 127 0" result="hardAlpha"/>
<feOffset dy="4"/>
<feGaussianBlur stdDeviation="2"/>
<feComposite in2="hardAlpha" operator="out"/>
<feColorMatrix type="matrix" values="0 0 0 0 0 0 0 0 0 0 0 0 0 0 0 0 0 0 0.25 0"/>
<feBlend mode="normal" in2="BackgroundImageFix" result="effect1_dropShadow"/>
<feBlend mode="normal" in="SourceGraphic" in2="effect1_dropShadow" result="shape"/>
</filter>
<filter id="filter4_d" x="696.636" y="16.564" width="105.333" height="80.1972" filterUnits="userSpaceOnUse" color-interpolation-filters="sRGB">
<feFlood flood-opacity="0" result="BackgroundImageFix"/>
<feColorMatrix in="SourceAlpha" type="matrix" values="0 0 0 0 0 0 0 0 0 0 0 0 0 0 0 0 0 0 127 0" result="hardAlpha"/>
<feOffset dy="4"/>
<feGaussianBlur stdDeviation="2"/>
<feComposite in2="hardAlpha" operator="out"/>
<feColorMatrix type="matrix" values="0 0 0 0 0 0 0 0 0 0 0 0 0 0 0 0 0 0 0.25 0"/>
<feBlend mode="normal" in2="BackgroundImageFix" result="effect1_dropShadow"/>
<feBlend mode="normal" in="SourceGraphic" in2="effect1_dropShadow" result="shape"/>
</filter>
<linearGradient id="paint0_linear" x1="5.46314e-06" y1="72" x2="838" y2="72" gradientUnits="userSpaceOnUse">
<stop stop-color="#142218"/>
<stop offset="1" stop-color="#072C15"/>
</linearGradient>
</defs>
</svg>
